<svg width="24" height="24" viewBox="0 0 24 24" fill="none" xmlns="http://www.w3.org/2000/svg">
<mask id="mask0_1949_2719" style="mask-type:alpha" maskUnits="userSpaceOnUse" x="2" y="2" width="20" height="20">
<rect x="2" y="2" width="20" height="20" fill="#D9D9D9"/>
</mask>
<g mask="url(#mask0_1949_2719)">
<path d="M15.3333 19.9167C14.0619 19.9167 12.9801 19.4706 12.088 18.5785C11.196 17.6865 10.7499 16.6047 10.7499 15.3333C10.7499 14.0619 11.196 12.9802 12.088 12.0881C12.9801 11.196 14.0619 10.75 15.3333 10.75C16.6046 10.75 17.6864 11.196 18.5785 12.0881C19.4705 12.9802 19.9166 14.0619 19.9166 15.3333C19.9166 16.6047 19.4705 17.6865 18.5785 18.5785C17.6864 19.4706 16.6046 19.9167 15.3333 19.9167ZM15.3333 18.6667C16.2499 18.6667 17.0346 18.3403 17.6874 17.6875C18.3402 17.0347 18.6666 16.25 18.6666 15.3333C18.6666 14.4167 18.3402 13.6319 17.6874 12.9792C17.0346 12.3264 16.2499 12 15.3333 12C14.4166 12 13.6319 12.3264 12.9791 12.9792C12.3263 13.6319 11.9999 14.4167 11.9999 15.3333C11.9999 16.25 12.3263 17.0347 12.9791 17.6875C13.6319 18.3403 14.4166 18.6667 15.3333 18.6667ZM5.58971 18.25C5.16874 18.25 4.81242 18.1042 4.52075 17.8125C4.22909 17.5208 4.08325 17.1645 4.08325 16.7435V10.7148C4.08325 10.6037 4.09902 10.4845 4.13054 10.3573C4.16207 10.2302 4.19867 10.1111 4.24034 9.99999L6.00325 6.00645H5.60575C5.39631 6.00645 5.22645 5.94124 5.09617 5.81083C4.96575 5.68055 4.90054 5.51069 4.90054 5.30125V4.78854C4.90054 4.57909 4.96575 4.40923 5.09617 4.27895C5.22645 4.14854 5.39631 4.08333 5.60575 4.08333H10.8941C11.1035 4.08333 11.2734 4.14854 11.4037 4.27895C11.5341 4.40923 11.5993 4.57909 11.5993 4.78854V5.30125C11.5993 5.51069 11.5341 5.68055 11.4037 5.81083C11.2734 5.94124 11.1035 6.00645 10.8941 6.00645H10.4966L12.2243 9.94229C12.0351 10.0438 11.8533 10.1549 11.6787 10.2756C11.5039 10.3963 11.3364 10.5326 11.1762 10.6844L9.15367 6.00645H7.34617L5.33325 10.6427V16.7435C5.33325 16.8184 5.35728 16.8799 5.40534 16.9279C5.45339 16.976 5.51485 17 5.58971 17H9.30763C9.3611 17.2222 9.43214 17.4396 9.52075 17.6523C9.6095 17.8648 9.71311 18.064 9.83159 18.25H5.58971ZM15.3333 9.75645C14.8621 9.7084 14.4666 9.51104 14.1466 9.16437C13.8266 8.81756 13.6666 8.40062 13.6666 7.91354C13.6666 7.42631 13.8266 7.00937 14.1466 6.6627C14.4666 6.31604 14.8621 6.11868 15.3333 6.07062V9.75645C15.3813 9.28534 15.5787 8.88979 15.9253 8.56979C16.272 8.24979 16.6889 8.08979 17.1762 8.08979C17.6634 8.08979 18.0803 8.24979 18.427 8.56979C18.7737 8.88979 18.971 9.28534 19.0191 9.75645H15.3333Z" fill="#39352C"/>
</g>
</svg>
