<svg width="24" height="24" viewBox="0 0 24 24" fill="none" xmlns="http://www.w3.org/2000/svg">
<mask id="mask0_1949_2717" style="mask-type:alpha" maskUnits="userSpaceOnUse" x="2" y="2" width="20" height="20">
<rect x="2" y="2" width="20" height="20" fill="#D9D9D9"/>
</mask>
<g mask="url(#mask0_1949_2717)">
<path d="M8.91508 17.8333H14.5001C14.5749 17.8333 14.6364 17.8093 14.6845 17.7613C14.7325 17.7132 14.7565 17.6517 14.7565 17.5769V9.5H13.0417C12.6101 9.5 12.2599 9.60125 11.9913 9.80375C11.7226 10.0061 11.4039 10.3082 11.0353 10.71C10.6614 11.1224 10.2877 11.4744 9.91425 11.766C9.54092 12.0577 9.12244 12.2585 8.65883 12.3685V17.5769C8.65883 17.6517 8.68286 17.7132 8.73091 17.7613C8.77897 17.8093 8.84036 17.8333 8.91508 17.8333ZM7.40883 17.5769V12.3477C6.68661 12.1694 6.09071 11.8099 5.62112 11.2692C5.15154 10.7286 4.91675 10.0694 4.91675 9.29167C4.91675 8.59834 5.11925 7.9816 5.52425 7.44146C5.92911 6.90146 6.46487 6.52299 7.13154 6.30604C7.44029 5.65007 7.89196 5.11778 8.48654 4.70917C9.08098 4.30056 9.76605 4.09625 10.5417 4.09625C10.9958 4.09625 11.4292 4.17424 11.8422 4.33021C12.2551 4.48618 12.6458 4.7191 13.0145 5.02896C13.1427 4.99049 13.2653 4.96084 13.3824 4.94C13.4993 4.91917 13.6288 4.90875 13.7709 4.90875C14.6181 4.90875 15.3347 5.21778 15.9207 5.83584C16.5067 6.45389 16.7997 7.18653 16.7997 8.03375C16.7997 8.31792 16.7722 8.58021 16.7172 8.82063C16.6622 9.06091 16.577 9.28736 16.4615 9.5H17.4967C17.9338 9.5 18.3075 9.65382 18.6178 9.96146C18.9282 10.2692 19.0834 10.6416 19.0834 11.0785V15.7579C19.0834 16.1949 18.9282 16.5685 18.6178 16.879C18.3075 17.1894 17.9338 17.3446 17.4967 17.3446H16.0065V17.5769C16.0065 17.9924 15.8593 18.3474 15.5649 18.6419C15.2706 18.9362 14.9156 19.0833 14.5001 19.0833H8.91508C8.49953 19.0833 8.1446 18.9362 7.85029 18.6419C7.55598 18.3474 7.40883 17.9924 7.40883 17.5769ZM6.16675 9.29167C6.16675 9.80875 6.34994 10.2506 6.71633 10.6171C7.08286 10.9835 7.52466 11.1667 8.04175 11.1667C8.51286 11.1667 8.9114 11.0235 9.23737 10.7373C9.56321 10.4509 9.89279 10.1272 10.2261 9.76604C10.5947 9.36438 10.9884 9.01125 11.4072 8.70667C11.8259 8.40222 12.3735 8.25 13.0499 8.25H15.5499C15.5818 7.66875 15.4226 7.17493 15.0722 6.76854C14.7217 6.36202 14.288 6.15875 13.7709 6.15875C13.4986 6.15875 13.2656 6.19049 13.0722 6.25396C12.8788 6.31757 12.7528 6.36542 12.694 6.3975L12.1363 5.92792C11.9676 5.79222 11.751 5.66132 11.4865 5.53521C11.2221 5.40924 10.9072 5.34625 10.5417 5.34625C10.0599 5.34625 9.61897 5.47361 9.21883 5.72834C8.81869 5.9832 8.51071 6.33341 8.29487 6.77896L8.03529 7.32375L7.44883 7.52084C7.05883 7.64792 6.74765 7.87257 6.51529 8.19479C6.28293 8.51688 6.16675 8.8825 6.16675 9.29167ZM16.0065 16.0946H17.4967C17.5876 16.0946 17.6664 16.0612 17.7332 15.9944C17.8 15.9276 17.8334 15.8488 17.8334 15.7579V11.0785C17.8334 10.9824 17.8013 10.9036 17.7372 10.8421C17.6731 10.7807 17.593 10.75 17.4967 10.75H16.0065V16.0946ZM8.91508 17.8333H8.65883H14.7565H8.91508Z" fill="#39352C"/>
</g>
</svg>
