<svg width="24" height="24" viewBox="0 0 24 24" fill="none" xmlns="http://www.w3.org/2000/svg">
<mask id="mask0_1949_2721" style="mask-type:alpha" maskUnits="userSpaceOnUse" x="2" y="2" width="20" height="20">
<rect x="2" y="2" width="20" height="20" fill="#D9D9D9"/>
</mask>
<g mask="url(#mask0_1949_2721)">
<path d="M11.375 16.3781L8.87667 18.835C8.76125 18.9503 8.61833 19.0079 8.44792 19.0079C8.2775 19.0079 8.13458 18.9433 8.01917 18.8142C7.89 18.6987 7.82542 18.5558 7.82542 18.3854C7.82542 18.215 7.89 18.0651 8.01917 17.9358L11.375 14.5802V12.625H9.41979L6.04333 16.0017C5.92792 16.1169 5.785 16.1746 5.61458 16.1746C5.44417 16.1746 5.29431 16.11 5.165 15.9808C5.04972 15.8654 4.99208 15.7225 4.99208 15.5521C4.99208 15.3817 5.04972 15.2388 5.165 15.1233L7.62188 12.625H4.47917C4.30722 12.625 4.16354 12.5651 4.04812 12.4454C3.93271 12.3258 3.875 12.1774 3.875 12C3.875 11.8281 3.93486 11.6809 4.05458 11.5585C4.17417 11.4362 4.32264 11.375 4.5 11.375H7.62188L5.165 8.8975C5.04972 8.78208 4.99208 8.63917 4.99208 8.46875C4.99208 8.29833 5.05667 8.14847 5.18583 8.01917C5.30125 7.90389 5.44417 7.84625 5.61458 7.84625C5.785 7.84625 5.93486 7.90389 6.06417 8.01917L9.41979 11.375H11.375V9.41979L7.99833 6.06417C7.88306 5.94875 7.82542 5.80583 7.82542 5.63542C7.82542 5.465 7.89 5.31514 8.01917 5.18583C8.13458 5.07056 8.2775 5.01292 8.44792 5.01292C8.61833 5.01292 8.76125 5.07056 8.87667 5.18583L11.375 7.62187V4.5C11.375 4.32806 11.4349 4.1809 11.5546 4.05854C11.6742 3.93618 11.8226 3.875 12 3.875C12.1719 3.875 12.3191 3.93618 12.4415 4.05854C12.5638 4.1809 12.625 4.32806 12.625 4.5V7.62187L15.1025 5.18583C15.2179 5.07056 15.3608 5.01292 15.5312 5.01292C15.7017 5.01292 15.8515 5.07056 15.9808 5.18583C16.0961 5.31514 16.1537 5.465 16.1537 5.63542C16.1537 5.80583 16.0961 5.94875 15.9808 6.06417L12.625 9.41979V11.375H14.5802L17.9358 8.01917C18.0512 7.90389 18.1942 7.84625 18.3646 7.84625C18.535 7.84625 18.6849 7.91083 18.8142 8.04C18.9294 8.15542 18.9871 8.29833 18.9871 8.46875C18.9871 8.63917 18.9294 8.78208 18.8142 8.8975L16.3781 11.375H19.5C19.6719 11.375 19.8191 11.4362 19.9415 11.5585C20.0638 11.6809 20.125 11.8281 20.125 12C20.125 12.1774 20.0638 12.3258 19.9415 12.4454C19.8191 12.5651 19.6719 12.625 19.5 12.625H16.3781L18.8142 15.1233C18.9294 15.2388 18.9871 15.3817 18.9871 15.5521C18.9871 15.7225 18.9294 15.8654 18.8142 15.9808C18.6849 16.11 18.535 16.1746 18.3646 16.1746C18.1942 16.1746 18.0512 16.11 17.9358 15.9808L14.5802 12.625H12.625V14.5802L15.9808 17.9567C16.0961 18.0721 16.1537 18.215 16.1537 18.3854C16.1537 18.5558 16.0892 18.7057 15.96 18.835C15.8446 18.9503 15.7017 19.0079 15.5312 19.0079C15.3608 19.0079 15.2179 18.9503 15.1025 18.835L12.625 16.3781V19.5208C12.625 19.6928 12.5638 19.8365 12.4415 19.9519C12.3191 20.0673 12.1719 20.125 12 20.125C11.8226 20.125 11.6742 20.0651 11.5546 19.9454C11.4349 19.8258 11.375 19.6774 11.375 19.5V16.3781Z" fill="#39352C"/>
</g>
</svg>
