<svg width="24" height="24" viewBox="0 0 24 24" fill="none" xmlns="http://www.w3.org/2000/svg">
<mask id="mask0_1949_2725" style="mask-type:alpha" maskUnits="userSpaceOnUse" x="2" y="2" width="20" height="20">
<rect x="2" y="2" width="20" height="20" fill="#D9D9D9"/>
</mask>
<g mask="url(#mask0_1949_2725)">
<path d="M15.2051 20.2692C15.028 20.2692 14.8796 20.2092 14.7597 20.0894C14.64 19.9695 14.5801 19.821 14.5801 19.644C14.5801 19.4667 14.64 19.3183 14.7597 19.1987C14.8796 19.079 15.028 19.0192 15.2051 19.0192H17.5928V18.0898H15.2051C15.028 18.0898 14.8796 18.0299 14.7597 17.91C14.64 17.7901 14.5801 17.6416 14.5801 17.4644C14.5801 17.2873 14.64 17.1389 14.7597 17.0192C14.8796 16.8996 15.028 16.8398 15.2051 16.8398H17.5928V15.9102H15.2051C15.028 15.9102 14.8796 15.8503 14.7597 15.7304C14.64 15.6106 14.5801 15.4621 14.5801 15.285C14.5801 15.1078 14.64 14.9594 14.7597 14.8398C14.8796 14.7201 15.028 14.6602 15.2051 14.6602H17.5928V13.7308H15.2051C15.028 13.7308 14.8796 13.6709 14.7597 13.551C14.64 13.4312 14.5801 13.2826 14.5801 13.1054C14.5801 12.9283 14.64 12.7799 14.7597 12.6602C14.8796 12.5406 15.028 12.4808 15.2051 12.4808H17.5928V11.5512H15.2051C15.028 11.5512 14.8796 11.4913 14.7597 11.3715C14.64 11.2517 14.5801 11.1033 14.5801 10.926C14.5801 10.7488 14.64 10.6004 14.7597 10.4808C14.8796 10.3611 15.028 10.3012 15.2051 10.3012H17.5928V9.37187H15.2051C15.028 9.37187 14.8796 9.31194 14.7597 9.19208C14.64 9.07222 14.5801 8.92375 14.5801 8.74666C14.5801 8.56944 14.64 8.42104 14.7597 8.30145C14.8796 8.18173 15.028 8.12187 15.2051 8.12187H18.2178C18.6227 8.12187 18.967 8.27708 19.2508 8.58749C19.5344 8.89777 19.6762 9.25541 19.6762 9.66041V18.8108C19.6762 19.2157 19.5344 19.56 19.2508 19.8437C18.967 20.1274 18.6227 20.2692 18.2178 20.2692H15.2051ZM9.00326 14.5C9.91992 14.5 10.7046 14.0486 11.3574 13.1458C12.0102 12.2431 12.3366 11.1667 12.3366 9.91666C12.3366 8.66666 12.0102 7.59027 11.3574 6.68749C10.7046 5.78472 9.91992 5.33333 9.00326 5.33333C8.08659 5.33333 7.30187 5.78472 6.64909 6.68749C5.99631 7.59027 5.66992 8.66666 5.66992 9.91666C5.66992 11.1667 5.99631 12.2431 6.64909 13.1458C7.30187 14.0486 8.08659 14.5 9.00326 14.5ZM9.00326 20.2692C8.45937 20.2692 8.01756 20.0667 7.67784 19.6619C7.33812 19.2569 7.20353 18.7878 7.27409 18.2548L7.59138 15.4535C6.66291 15.0806 5.90221 14.3912 5.3093 13.3854C4.71638 12.3796 4.41992 11.2233 4.41992 9.91666C4.41992 8.29624 4.86534 6.91895 5.75617 5.78479C6.64701 4.65048 7.72867 4.08333 9.00117 4.08333C10.2738 4.08333 11.3562 4.65048 12.2483 5.78479C13.1403 6.91895 13.5864 8.29624 13.5864 9.91666C13.5864 11.2233 13.2899 12.3796 12.697 13.3854C12.1041 14.3912 11.3434 15.0806 10.4149 15.4535L10.7322 18.2548C10.808 18.7878 10.6729 19.2569 10.3268 19.6619C9.98055 20.0667 9.53937 20.2692 9.00326 20.2692Z" fill="#39352C"/>
</g>
</svg>
