<svg width="24" height="24" viewBox="0 0 24 24" fill="none" xmlns="http://www.w3.org/2000/svg">
<mask id="mask0_1949_2727" style="mask-type:alpha" maskUnits="userSpaceOnUse" x="2" y="2" width="20" height="20">
<rect x="2" y="2" width="20" height="20" fill="#D9D9D9"/>
</mask>
<g mask="url(#mask0_1949_2727)">
<path d="M8.69883 19.596C8.35272 19.596 8.05786 19.4742 7.81425 19.2306C7.57064 18.9872 7.44883 18.6923 7.44883 18.346V14.7627C7.44883 13.7349 7.608 12.7333 7.92633 11.7579C8.2448 10.7825 8.74855 9.81459 9.43758 8.85417L9.12508 8.88625C8.65078 8.82528 8.24744 8.60868 7.91508 8.23646C7.58286 7.8641 7.41675 7.43216 7.41675 6.94063V6.08979C7.41675 5.52993 7.65557 5.06306 8.13321 4.68917C8.61071 4.31528 9.11654 4.155 9.65071 4.20834L16.7628 4.8975C16.967 4.91986 17.127 5.0016 17.2428 5.14271C17.3588 5.28368 17.4167 5.44764 17.4167 5.63459V7.52875C17.4167 7.7157 17.3518 7.88104 17.222 8.02479C17.0922 8.16854 16.9338 8.2516 16.7467 8.27396L16.0449 8.34938C16.1977 8.86854 16.3796 9.34209 16.5907 9.77C16.8017 10.1979 17.053 10.5619 17.3447 10.8621C17.4654 10.9914 17.5433 11.1404 17.5786 11.3092C17.6139 11.4781 17.5893 11.6357 17.5049 11.7821C17.4204 11.9283 17.2986 12.0256 17.1395 12.0738C16.9803 12.1218 16.8361 12.0881 16.7067 11.9727C16.2324 11.5624 15.8484 11.0515 15.5547 10.4398C15.2608 9.82813 15.0247 9.16653 14.8463 8.455L13.3847 8.59459C13.4744 9.32097 13.6808 10.0504 14.004 10.7829C14.3272 11.5153 14.6859 12.2169 15.0801 12.8877C15.3195 13.3002 15.4964 13.7322 15.6107 14.1835C15.725 14.6349 15.7822 15.0919 15.7822 15.5544V18.346C15.7822 18.6923 15.6604 18.9872 15.4167 19.2306C15.1731 19.4742 14.8783 19.596 14.5322 19.596H8.69883ZM8.66675 6.25V6.90875C8.66675 7.15875 8.75703 7.36014 8.93758 7.51292C9.11814 7.6657 9.33341 7.7282 9.58341 7.70042L16.1667 7.07542V6.08334L9.58341 5.45834C9.33341 5.43056 9.11814 5.49306 8.93758 5.64584C8.75703 5.79861 8.66675 6 8.66675 6.25ZM8.69883 18.346H14.5322V15.5544C14.5322 15.1826 14.4883 14.8271 14.4007 14.4879C14.3131 14.1488 14.1763 13.8194 13.9905 13.5C13.4851 12.6378 13.074 11.8181 12.7574 11.0408C12.4406 10.2636 12.233 9.49035 12.1347 8.72104L11.0209 8.81729L10.4072 9.63771C9.85689 10.3792 9.4346 11.1897 9.14029 12.069C8.84598 12.9481 8.69883 13.846 8.69883 14.7627V18.346Z" fill="#39352C"/>
</g>
</svg>
