<svg width="24" height="24" viewBox="0 0 24 24" fill="none" xmlns="http://www.w3.org/2000/svg">
<mask id="mask0_1949_2723" style="mask-type:alpha" maskUnits="userSpaceOnUse" x="2" y="2" width="20" height="20">
<rect x="2" y="2" width="20" height="20" fill="#D9D9D9"/>
</mask>
<g mask="url(#mask0_1949_2723)">
<path d="M12 20.75C10.7949 20.75 9.66076 20.5211 8.59771 20.0633C7.53465 19.6056 6.60653 18.98 5.81333 18.1867C5.02 17.3935 4.39444 16.4653 3.93667 15.4023C3.47889 14.3392 3.25 13.2051 3.25 12C3.25 10.7949 3.47889 9.66076 3.93667 8.59771C4.39444 7.53465 5.02 6.60653 5.81333 5.81333C6.60653 5.02 7.53465 4.39444 8.59771 3.93667C9.66076 3.47889 10.7949 3.25 12 3.25C13.2051 3.25 14.3392 3.47889 15.4023 3.93667C16.4653 4.39444 17.3935 5.02 18.1867 5.81333C18.98 6.60653 19.6056 7.53465 20.0633 8.59771C20.5211 9.66076 20.75 10.7949 20.75 12C20.75 13.2051 20.5211 14.3392 20.0633 15.4023C19.6056 16.4653 18.98 17.3935 18.1867 18.1867C17.3935 18.98 16.4653 19.6056 15.4023 20.0633C14.3392 20.5211 13.2051 20.75 12 20.75ZM12 19.5C14.0833 19.5 15.8542 18.7708 17.3125 17.3125C18.7708 15.8542 19.5 14.0833 19.5 12C19.5 9.91667 18.7708 8.14583 17.3125 6.6875C15.8542 5.22917 14.0833 4.5 12 4.5C9.91667 4.5 8.14583 5.22917 6.6875 6.6875C5.22917 8.14583 4.5 9.91667 4.5 12C4.5 14.0833 5.22917 15.8542 6.6875 17.3125C8.14583 18.7708 9.91667 19.5 12 19.5ZM12 17.4967C13.5289 17.4967 14.8272 16.9628 15.895 15.895C16.9628 14.8272 17.4967 13.5289 17.4967 12C17.4967 10.4711 16.9628 9.17278 15.895 8.105C14.8272 7.03722 13.5289 6.50333 12 6.50333C11.6239 6.50333 11.2756 6.59014 10.9552 6.76375C10.6347 6.93736 10.3643 7.17583 10.1442 7.47917C9.77667 7.46208 9.41208 7.49708 9.05042 7.58417C8.68889 7.67125 8.37722 7.84563 8.11542 8.10729C7.85361 8.3691 7.6709 8.67951 7.56729 9.03854C7.46368 9.39743 7.43965 9.76333 7.49521 10.1362C7.19174 10.3617 6.95056 10.6347 6.77167 10.9552C6.59278 11.2756 6.50333 11.6239 6.50333 12C6.50333 12.3761 6.59278 12.7244 6.77167 13.0448C6.95056 13.3653 7.19174 13.6383 7.49521 13.8637C7.43965 14.2312 7.46236 14.5945 7.56333 14.9535C7.66431 15.3124 7.84562 15.6228 8.10729 15.8846C8.3691 16.1464 8.67951 16.3312 9.03854 16.4392C9.39743 16.5469 9.76062 16.5688 10.1281 16.5048C10.3537 16.8083 10.628 17.0494 10.951 17.2283C11.2742 17.4072 11.6239 17.4967 12 17.4967ZM12 16.2469C11.6944 16.2469 11.449 16.1251 11.2635 15.8815C11.0783 15.6378 10.8884 15.398 10.694 15.1619C10.3884 15.2035 10.0828 15.2449 9.77729 15.286C9.47174 15.3272 9.20785 15.2366 8.98562 15.0144C8.7634 14.7922 8.67153 14.5283 8.71 14.2227C8.74847 13.9172 8.79118 13.6116 8.83813 13.306C8.60201 13.1202 8.36215 12.9324 8.11854 12.7427C7.87493 12.5531 7.75312 12.3056 7.75312 12C7.75312 11.6944 7.87493 11.449 8.11854 11.2635C8.36215 11.0783 8.60201 10.8884 8.83813 10.694C8.79646 10.3884 8.75507 10.0828 8.71396 9.77729C8.67285 9.47174 8.7634 9.20785 8.98562 8.98562C9.20785 8.7634 9.47174 8.67285 9.77729 8.71396C10.0828 8.75507 10.3884 8.79646 10.694 8.83812C10.8798 8.59674 11.0676 8.35556 11.2573 8.11458C11.4469 7.87361 11.6944 7.75313 12 7.75313V16.2469ZM14.096 15.0096L13.3204 14.234C13.2425 14.1559 13.2035 14.0646 13.2035 13.96C13.2035 13.8553 13.2425 13.7639 13.3204 13.6858L14.096 12.9102C14.1741 12.8323 14.2633 12.7933 14.3638 12.7933C14.4642 12.7933 14.5534 12.8323 14.6315 12.9102L15.4071 13.6858C15.485 13.7639 15.524 13.8553 15.524 13.96C15.524 14.0646 15.485 14.1559 15.4071 14.234L14.6315 15.0096C14.5534 15.0876 14.4642 15.1267 14.3638 15.1267C14.2633 15.1267 14.1741 15.0876 14.096 15.0096ZM13.346 9.9375C13.2595 9.85097 13.2219 9.74924 13.2331 9.63229C13.2444 9.51521 13.3002 9.42465 13.4006 9.36062C13.6581 9.2366 13.9236 9.19542 14.1971 9.23708C14.4706 9.27875 14.711 9.4075 14.9183 9.62333C15.1342 9.83069 15.2637 10.0746 15.3069 10.355C15.3502 10.6354 15.3072 10.9017 15.1779 11.154C15.1224 11.2628 15.034 11.3216 14.9127 11.3302C14.7915 11.3387 14.6833 11.2954 14.5881 11.2004L13.346 9.9375Z" fill="#39352C"/>
</g>
</svg>
