<svg width="24" height="24" viewBox="0 0 24 24" fill="none" xmlns="http://www.w3.org/2000/svg">
<path d="M20.79 7.72092C20.4922 6.6971 19.5803 5.6713 18.4116 5.04579C17.804 4.71424 17.1336 4.50258 16.4398 4.4232C15.746 4.34383 15.0426 4.39834 14.371 4.58354C13.845 4.73008 12.2515 5.53656 11.3385 6.00372L9.05319 4.96317C8.99417 4.93633 8.92846 4.92605 8.86362 4.93349C8.79879 4.94094 8.73745 4.96582 8.68667 5.00527C8.6359 5.04471 8.59773 5.09714 8.57657 5.1565C8.55541 5.21586 8.55211 5.27976 8.56705 5.34084L9.06752 7.36981C9.09662 7.48787 9.0917 7.61132 9.0533 7.7269C9.01489 7.84247 8.94444 7.94581 8.84952 8.02581L7.30105 9.33584C7.2521 9.37734 7.21632 9.43127 7.19783 9.49143C7.17934 9.55159 7.17889 9.61555 7.19653 9.67595C7.21416 9.73634 7.24917 9.79074 7.29753 9.83287C7.3459 9.87501 7.40565 9.90318 7.46992 9.91414L9.62529 10.279C9.73531 10.2972 9.83919 10.3404 9.92823 10.4051C10.0173 10.4697 10.0889 10.554 10.137 10.6508L11.0305 12.4604C11.0575 12.5156 11.0997 12.5626 11.1526 12.5962C11.2055 12.6299 11.267 12.6489 11.3304 12.6512C11.3935 12.6529 11.456 12.6383 11.5112 12.6089C11.5665 12.5795 11.6125 12.5364 11.6446 12.484L12.7591 10.6154C12.8098 10.5307 12.8791 10.4578 12.9622 10.4015C13.0452 10.3453 13.1401 10.3072 13.2401 10.2898L15.548 9.89054C15.606 9.87032 15.6573 9.83561 15.6967 9.78997C15.7361 9.74433 15.7621 9.68941 15.7721 9.63089C15.7824 9.57255 15.7761 9.51264 15.7539 9.45743C15.7318 9.40222 15.6946 9.35377 15.6462 9.31715L13.235 7.47701C13.1086 7.39332 12.9541 7.35817 12.802 7.37849C12.65 7.39881 12.5114 7.47313 12.4135 7.5868C12.3156 7.70047 12.2656 7.84524 12.2733 7.99258C12.281 8.13993 12.3459 8.27915 12.4551 8.38282L13.0068 8.83622C13.0304 8.85588 13.0478 8.88157 13.057 8.91033C13.0661 8.9391 13.0666 8.96975 13.0583 8.99876C13.0501 9.02777 13.0335 9.05395 13.0104 9.07426C12.9873 9.09458 12.9587 9.10821 12.9279 9.11357L12.4029 9.20405C12.312 9.2195 12.2258 9.25392 12.1503 9.30491C12.0748 9.35589 12.0118 9.42218 11.9659 9.4991L11.575 10.1541C11.5596 10.1791 11.5375 10.1997 11.5111 10.2137C11.4846 10.2277 11.4547 10.2346 11.4245 10.2338C11.3941 10.233 11.3645 10.2241 11.3392 10.2079C11.3138 10.1917 11.2937 10.169 11.2812 10.1423L10.9824 9.53746C10.9387 9.44987 10.874 9.37351 10.7935 9.31469C10.7131 9.25586 10.6193 9.21626 10.5198 9.19913L9.88934 9.09291C9.85895 9.08811 9.83061 9.07511 9.8076 9.05544C9.78459 9.03577 9.76787 9.01022 9.75936 8.98178C9.75015 8.95348 9.7494 8.92327 9.75718 8.89458C9.76496 8.86589 9.78096 8.83988 9.80337 8.8195L10.3018 8.36709C10.3834 8.29284 10.4431 8.19905 10.4745 8.09535C10.506 7.99165 10.5082 7.88177 10.4809 7.77698L10.3264 7.18196C10.3186 7.1526 10.3197 7.12172 10.3295 7.09294C10.3394 7.06417 10.3576 7.03868 10.382 7.01948C10.4063 7.00028 10.4359 6.98816 10.4672 6.98453C10.4985 6.98091 10.5302 6.98594 10.5587 6.99903L11.0929 7.24195C11.1831 7.28306 11.2821 7.30315 11.3818 7.30058C11.4816 7.29802 11.5793 7.27288 11.6671 7.2272C12.6424 6.71578 14.3352 5.86505 14.7231 5.75784C15.2337 5.61778 15.7683 5.57704 16.2955 5.63801C16.8227 5.69898 17.3319 5.86042 17.7934 6.11289C18.6644 6.58006 19.3613 7.34129 19.5691 8.05335C19.9191 9.25913 19.7216 10.1344 18.8639 11.174C17.95 12.2814 16.3053 13.5295 14.022 15.2644C12.8809 16.1319 11.5862 17.1154 10.1288 18.268C10.111 18.2825 10.0903 18.2933 10.0679 18.2997C10.0455 18.3062 10.022 18.3081 9.99885 18.3054C9.97623 18.3022 9.95455 18.2945 9.93518 18.2828C9.9158 18.2711 9.89915 18.2557 9.88627 18.2375C9.2067 17.3052 7.73704 15.2674 5.51719 12.1044C4.68922 10.9242 4.27984 9.85907 4.26654 8.85196C4.24812 7.49964 4.97681 6.23091 6.43317 5.0812C6.52983 5.00599 6.60128 4.90506 6.63857 4.79104C6.67586 4.67702 6.67734 4.55496 6.64282 4.44014C6.60831 4.32531 6.53933 4.22281 6.44452 4.14546C6.34971 4.0681 6.23327 4.01933 6.10976 4.00524C6.02566 3.9944 5.94013 4.00042 5.85857 4.02294C5.77702 4.04545 5.7012 4.08396 5.63591 4.13604C3.8633 5.53262 2.97495 7.12394 3.00054 8.86769C3.01794 10.1197 3.49691 11.4002 4.46713 12.784C7.66642 17.3465 9.33464 19.5987 9.35101 19.6204L9.53114 19.8623C9.55885 19.8998 9.59434 19.9314 9.63538 19.9551C9.67642 19.9788 9.72212 19.9941 9.7696 20H9.81258C9.89419 20.0004 9.97328 19.9728 10.0357 19.9223L10.2731 19.7325C11.9956 18.3497 13.4908 17.2137 14.8182 16.2066C17.1599 14.4284 18.8527 13.143 19.8577 11.9244C20.4083 11.2566 20.7512 10.6095 20.9037 9.94463C21.0623 9.25716 21.0254 8.53035 20.79 7.72092Z" fill="#39352C"/>
</svg>
