<svg width="24" height="24" viewBox="0 0 24 24" fill="none" xmlns="http://www.w3.org/2000/svg">
<mask id="mask0_1949_2712" style="mask-type:alpha" maskUnits="userSpaceOnUse" x="2" y="2" width="20" height="20">
<rect x="2" y="2" width="20" height="20" fill="#D9D9D9"/>
</mask>
<g mask="url(#mask0_1949_2712)">
<path d="M4.61862 9.80938L7.19237 5.24355C7.27043 5.10688 7.36529 5.00778 7.47696 4.94625C7.58876 4.88486 7.713 4.85417 7.84966 4.85417C7.98633 4.85417 8.11043 4.88486 8.22196 4.94625C8.33362 5.00778 8.42848 5.10688 8.50654 5.24355L11.0803 9.80938C11.1497 9.93591 11.181 10.0624 11.174 10.189C11.1671 10.3155 11.1315 10.4357 11.0674 10.5496C11.0049 10.6626 10.9174 10.7537 10.8049 10.8227C10.6925 10.8917 10.5649 10.9263 10.422 10.9263H5.27696C5.13404 10.9263 5.00633 10.8917 4.89383 10.8227C4.78147 10.7537 4.69404 10.6626 4.63154 10.5496C4.56737 10.4357 4.53182 10.3155 4.52487 10.189C4.51793 10.0624 4.54918 9.93591 4.61862 9.80938ZM7.85737 19.2996C6.9889 19.2996 6.2496 18.9946 5.63946 18.3846C5.02946 17.7746 4.72446 17.0364 4.72446 16.17C4.72446 15.2907 5.02946 14.5481 5.63946 13.9423C6.2496 13.3366 6.9889 13.0338 7.85737 13.0338C8.72598 13.0338 9.46529 13.3388 10.0753 13.9488C10.6854 14.5588 10.9905 15.2981 10.9905 16.1667C10.9905 17.0353 10.6854 17.7746 10.0753 18.3846C9.46529 18.9946 8.72598 19.2996 7.85737 19.2996ZM7.85737 18.0498C8.37987 18.0498 8.82432 17.8665 9.19071 17.5C9.55723 17.1336 9.7405 16.6892 9.7405 16.1667C9.7405 15.6442 9.55723 15.1997 9.19071 14.8333C8.82432 14.4668 8.37987 14.2835 7.85737 14.2835C7.33501 14.2835 6.89057 14.4668 6.52404 14.8333C6.15765 15.1997 5.97446 15.6442 5.97446 16.1667C5.97446 16.6892 6.15765 17.1336 6.52404 17.5C6.89057 17.8665 7.33501 18.0498 7.85737 18.0498ZM6.12341 9.67625H9.58342L7.84946 6.63938L6.12341 9.67625ZM13.0499 18.5465V13.7869C13.0499 13.5734 13.122 13.3945 13.2663 13.2502C13.4106 13.1059 13.5895 13.0338 13.803 13.0338H18.5626C18.7759 13.0338 18.9548 13.1059 19.0993 13.2502C19.2436 13.3945 19.3157 13.5734 19.3157 13.7869V18.5465C19.3157 18.7599 19.2436 18.9388 19.0993 19.0831C18.9548 19.2274 18.7759 19.2996 18.5626 19.2996H13.803C13.5895 19.2996 13.4106 19.2274 13.2663 19.0831C13.122 18.9388 13.0499 18.7599 13.0499 18.5465ZM14.2997 18.0498H18.0657V14.2835H14.2997V18.0498ZM15.6972 10.524L14.7853 9.76292C13.9446 9.06945 13.329 8.48077 12.9384 7.99688C12.5479 7.51285 12.3526 6.98348 12.3526 6.40875C12.3526 5.84778 12.5433 5.37875 12.9249 5.00167C13.3063 4.62445 13.7859 4.43584 14.3638 4.43584C14.7174 4.43584 15.0481 4.52 15.3557 4.68834C15.6635 4.85667 15.9392 5.09889 16.1828 5.415C16.4264 5.10417 16.7047 4.86327 17.0178 4.6923C17.3307 4.52132 17.6613 4.43584 18.0097 4.43584C18.5802 4.43584 19.0567 4.62868 19.4392 5.01438C19.8216 5.40007 20.0128 5.87285 20.0128 6.43271C20.0128 7.00216 19.8176 7.52618 19.4272 8.0048C19.0366 8.48341 18.421 9.06945 17.5803 9.76292L16.6684 10.524C16.5313 10.6469 16.3694 10.7083 16.1826 10.7083C15.9958 10.7083 15.834 10.6469 15.6972 10.524ZM16.1828 9.29167C17.1668 8.50112 17.8429 7.90285 18.2109 7.49688C18.579 7.09091 18.763 6.74209 18.763 6.45042C18.763 6.22709 18.6949 6.04382 18.5586 5.90063C18.4224 5.75743 18.2453 5.68584 18.0274 5.68584C17.8682 5.68584 17.713 5.73209 17.5618 5.82459C17.4106 5.91695 17.2111 6.08709 16.9632 6.335L16.1828 7.0898L15.4024 6.335C15.1492 6.08181 14.9486 5.91028 14.8005 5.82042C14.6526 5.7307 14.4985 5.68584 14.3382 5.68584C14.1149 5.68584 13.9365 5.75341 13.803 5.88855C13.6694 6.02368 13.6026 6.20563 13.6026 6.43438C13.6026 6.73674 13.7866 7.09091 14.1547 7.49688C14.5227 7.90285 15.1988 8.50112 16.1828 9.29167Z" fill="#39352C"/>
</g>
</svg>
